<svg id="visual" viewBox="0 0 900 600" width="900" height="600" xmlns="http://www.w3.org/2000/svg" xmlns:xlink="http://www.w3.org/1999/xlink" version="1.1"><path d="M0 109L13.7 110C27.3 111 54.7 113 82 112C109.3 111 136.7 107 163.8 107C191 107 218 111 245.2 111C272.3 111 299.7 107 327 106C354.3 105 381.7 107 409 106C436.3 105 463.7 101 491 95C518.3 89 545.7 81 573 75C600.3 69 627.7 65 654.8 74C682 83 709 105 736.2 111C763.3 117 790.7 107 818 101C845.3 95 872.7 93 886.3 92L900 91L900 0L886.3 0C872.7 0 845.3 0 818 0C790.7 0 763.3 0 736.2 0C709 0 682 0 654.8 0C627.7 0 600.3 0 573 0C545.7 0 518.3 0 491 0C463.7 0 436.3 0 409 0C381.7 0 354.3 0 327 0C299.7 0 272.3 0 245.2 0C218 0 191 0 163.8 0C136.7 0 109.3 0 82 0C54.7 0 27.3 0 13.7 0L0 0Z" fill="#6583ff"></path><path d="M0 205L13.7 202C27.3 199 54.7 193 82 183C109.3 173 136.7 159 163.8 155C191 151 218 157 245.2 159C272.3 161 299.7 159 327 159C354.3 159 381.7 161 409 161C436.3 161 463.7 159 491 151C518.3 143 545.7 129 573 125C600.3 121 627.7 127 654.8 136C682 145 709 157 736.2 166C763.3 175 790.7 181 818 179C845.3 177 872.7 167 886.3 162L900 157L900 89L886.3 90C872.7 91 845.3 93 818 99C790.7 105 763.3 115 736.2 109C709 103 682 81 654.8 72C627.7 63 600.3 67 573 73C545.7 79 518.3 87 491 93C463.7 99 436.3 103 409 104C381.7 105 354.3 103 327 104C299.7 105 272.3 109 245.2 109C218 109 191 105 163.8 105C136.7 105 109.3 109 82 110C54.7 111 27.3 109 13.7 108L0 107Z" fill="#4066ff"></path><path d="M0 337L13.7 332C27.3 327 54.7 317 82 315C109.3 313 136.7 319 163.8 314C191 309 218 293 245.2 287C272.3 281 299.7 285 327 293C354.3 301 381.7 313 409 305C436.3 297 463.7 269 491 271C518.3 273 545.7 305 573 309C600.3 313 627.7 289 654.8 278C682 267 709 269 736.2 277C763.3 285 790.7 299 818 316C845.3 333 872.7 353 886.3 363L900 373L900 155L886.3 160C872.7 165 845.3 175 818 177C790.7 179 763.3 173 736.2 164C709 155 682 143 654.8 134C627.7 125 600.3 119 573 123C545.7 127 518.3 141 491 149C463.7 157 436.3 159 409 159C381.7 159 354.3 157 327 157C299.7 157 272.3 159 245.2 157C218 155 191 149 163.8 153C136.7 157 109.3 171 82 181C54.7 191 27.3 197 13.7 200L0 203Z" fill="#0046ff"></path><path d="M0 505L13.7 509C27.3 513 54.7 521 82 515C109.3 509 136.7 489 163.8 477C191 465 218 461 245.2 466C272.3 471 299.7 485 327 487C354.3 489 381.7 479 409 474C436.3 469 463.7 469 491 462C518.3 455 545.7 441 573 450C600.3 459 627.7 491 654.8 506C682 521 709 519 736.2 523C763.3 527 790.7 537 818 526C845.3 515 872.7 483 886.3 467L900 451L900 371L886.3 361C872.7 351 845.3 331 818 314C790.7 297 763.3 283 736.2 275C709 267 682 265 654.8 276C627.7 287 600.3 311 573 307C545.7 303 518.3 271 491 269C463.7 267 436.3 295 409 303C381.7 311 354.3 299 327 291C299.7 283 272.3 279 245.2 285C218 291 191 307 163.8 312C136.7 317 109.3 311 82 313C54.7 315 27.3 325 13.7 330L0 335Z" fill="#003edd"></path><path d="M0 601L13.7 601C27.3 601 54.7 601 82 601C109.3 601 136.7 601 163.8 601C191 601 218 601 245.2 601C272.3 601 299.7 601 327 601C354.3 601 381.7 601 409 601C436.3 601 463.7 601 491 601C518.3 601 545.7 601 573 601C600.3 601 627.7 601 654.8 601C682 601 709 601 736.2 601C763.3 601 790.7 601 818 601C845.3 601 872.7 601 886.3 601L900 601L900 449L886.3 465C872.7 481 845.3 513 818 524C790.7 535 763.3 525 736.2 521C709 517 682 519 654.8 504C627.7 489 600.3 457 573 448C545.7 439 518.3 453 491 460C463.7 467 436.3 467 409 472C381.7 477 354.3 487 327 485C299.7 483 272.3 469 245.2 464C218 459 191 463 163.8 475C136.7 487 109.3 507 82 513C54.7 519 27.3 511 13.7 507L0 503Z" fill="#0035bc"></path></svg>