<svg id="visual" viewBox="0 0 1000 600" width="1000" height="600" xmlns="http://www.w3.org/2000/svg" xmlns:xlink="http://www.w3.org/1999/xlink" version="1.1"><g stroke-width="1" stroke-linejoin="bevel"><path d="M421.4 283L455.4 218L323.3 211Z" fill="#277297" stroke="#277297"></path><path d="M323.3 211L318.3 285L421.4 283Z" fill="#081a28" stroke="#081a28"></path><path d="M455.4 218L356.3 115L323.3 211Z" fill="#081a28" stroke="#081a28"></path><path d="M455.4 218L461.4 116L356.3 115Z" fill="#00101c" stroke="#00101c"></path><path d="M318.3 285L327.3 372L421.4 283Z" fill="#081a28" stroke="#081a28"></path><path d="M327.3 372L447.4 380L421.4 283Z" fill="#1d4e6b" stroke="#1d4e6b"></path><path d="M579.6 318L554.6 203L455.4 218Z" fill="#205a7a" stroke="#205a7a"></path><path d="M455.4 218L554.6 203L461.4 116Z" fill="#0c2435" stroke="#0c2435"></path><path d="M579.6 318L455.4 218L421.4 283Z" fill="#297ea6" stroke="#297ea6"></path><path d="M218.2 209L232.2 293L323.3 211Z" fill="#15384f" stroke="#15384f"></path><path d="M323.3 211L232.2 293L318.3 285Z" fill="#246688" stroke="#246688"></path><path d="M318.3 285L232.2 293L327.3 372Z" fill="#00101c" stroke="#00101c"></path><path d="M225.2 116L218.2 209L323.3 211Z" fill="#00101c" stroke="#00101c"></path><path d="M356.3 115L225.2 116L323.3 211Z" fill="#1d4e6b" stroke="#1d4e6b"></path><path d="M554.6 203L533.6 73L461.4 116Z" fill="#297ea6" stroke="#297ea6"></path><path d="M467.4 0L322.3 0L356.3 115Z" fill="#081a28" stroke="#081a28"></path><path d="M356.3 115L322.3 0L225.2 116Z" fill="#00101c" stroke="#00101c"></path><path d="M447.4 380L579.6 318L421.4 283Z" fill="#1d4e6b" stroke="#1d4e6b"></path><path d="M554.6 203L657.7 125L533.6 73Z" fill="#1d4e6b" stroke="#1d4e6b"></path><path d="M232.2 293L217.2 374L327.3 372Z" fill="#205a7a" stroke="#205a7a"></path><path d="M444.4 492L549.6 399L447.4 380Z" fill="#246688" stroke="#246688"></path><path d="M135.1 407L217.2 374L89.1 319Z" fill="#1d4e6b" stroke="#1d4e6b"></path><path d="M467.4 0L356.3 115L461.4 116Z" fill="#246688" stroke="#246688"></path><path d="M447.4 380L549.6 399L579.6 318Z" fill="#15384f" stroke="#15384f"></path><path d="M444.4 492L447.4 380L327.3 372Z" fill="#246688" stroke="#246688"></path><path d="M533.6 73L467.4 0L461.4 116Z" fill="#19435d" stroke="#19435d"></path><path d="M217.2 374L308.3 479L327.3 372Z" fill="#205a7a" stroke="#205a7a"></path><path d="M692.7 295L654.7 186L579.6 318Z" fill="#297ea6" stroke="#297ea6"></path><path d="M579.6 318L654.7 186L554.6 203Z" fill="#112e42" stroke="#112e42"></path><path d="M533.6 73L572.6 0L467.4 0Z" fill="#277297" stroke="#277297"></path><path d="M225.2 116L120.1 210L218.2 209Z" fill="#205a7a" stroke="#205a7a"></path><path d="M218.2 209L120.1 210L232.2 293Z" fill="#205a7a" stroke="#205a7a"></path><path d="M137.1 89L120.1 210L225.2 116Z" fill="#15384f" stroke="#15384f"></path><path d="M308.3 479L444.4 492L327.3 372Z" fill="#1d4e6b" stroke="#1d4e6b"></path><path d="M198.2 0L137.1 89L225.2 116Z" fill="#00101c" stroke="#00101c"></path><path d="M654.7 186L657.7 125L554.6 203Z" fill="#112e42" stroke="#112e42"></path><path d="M657.7 125L572.6 0L533.6 73Z" fill="#112e42" stroke="#112e42"></path><path d="M322.3 0L198.2 0L225.2 116Z" fill="#246688" stroke="#246688"></path><path d="M667.7 373L692.7 295L579.6 318Z" fill="#1d4e6b" stroke="#1d4e6b"></path><path d="M654.7 186L769.8 216L657.7 125Z" fill="#205a7a" stroke="#205a7a"></path><path d="M667.7 373L579.6 318L549.6 399Z" fill="#081a28" stroke="#081a28"></path><path d="M89.1 319L217.2 374L232.2 293Z" fill="#1d4e6b" stroke="#1d4e6b"></path><path d="M217.2 374L201.2 520L308.3 479Z" fill="#246688" stroke="#246688"></path><path d="M120.1 210L89.1 319L232.2 293Z" fill="#15384f" stroke="#15384f"></path><path d="M0 216L89.1 319L120.1 210Z" fill="#112e42" stroke="#112e42"></path><path d="M572.6 482L667.7 373L549.6 399Z" fill="#00101c" stroke="#00101c"></path><path d="M444.4 492L572.6 482L549.6 399Z" fill="#246688" stroke="#246688"></path><path d="M135.1 407L201.2 520L217.2 374Z" fill="#277297" stroke="#277297"></path><path d="M308.3 479L338.3 600L444.4 492Z" fill="#081a28" stroke="#081a28"></path><path d="M444.4 492L463.4 600L572.6 482Z" fill="#0c2435" stroke="#0c2435"></path><path d="M198.2 0L118.1 0L137.1 89Z" fill="#205a7a" stroke="#205a7a"></path><path d="M0 94L0 216L120.1 210Z" fill="#112e42" stroke="#112e42"></path><path d="M765.8 81L681.7 0L657.7 125Z" fill="#1d4e6b" stroke="#1d4e6b"></path><path d="M657.7 125L681.7 0L572.6 0Z" fill="#0c2435" stroke="#0c2435"></path><path d="M233.2 600L338.3 600L308.3 479Z" fill="#112e42" stroke="#112e42"></path><path d="M578.6 600L646.7 503L572.6 482Z" fill="#297ea6" stroke="#297ea6"></path><path d="M572.6 482L646.7 503L667.7 373Z" fill="#0c2435" stroke="#0c2435"></path><path d="M799.8 284L769.8 216L692.7 295Z" fill="#081a28" stroke="#081a28"></path><path d="M799.8 284L692.7 295L792.8 375Z" fill="#19435d" stroke="#19435d"></path><path d="M692.7 295L769.8 216L654.7 186Z" fill="#112e42" stroke="#112e42"></path><path d="M338.3 600L463.4 600L444.4 492Z" fill="#00101c" stroke="#00101c"></path><path d="M0 94L120.1 210L137.1 89Z" fill="#19435d" stroke="#19435d"></path><path d="M89.1 319L0 426L135.1 407Z" fill="#19435d" stroke="#19435d"></path><path d="M135.1 407L90.1 526L201.2 520Z" fill="#205a7a" stroke="#205a7a"></path><path d="M0 216L0 318L89.1 319Z" fill="#19435d" stroke="#19435d"></path><path d="M769.8 216L765.8 81L657.7 125Z" fill="#19435d" stroke="#19435d"></path><path d="M201.2 520L233.2 600L308.3 479Z" fill="#19435d" stroke="#19435d"></path><path d="M93.1 600L233.2 600L201.2 520Z" fill="#297ea6" stroke="#297ea6"></path><path d="M118.1 0L0 94L137.1 89Z" fill="#19435d" stroke="#19435d"></path><path d="M792.8 375L692.7 295L667.7 373Z" fill="#081a28" stroke="#081a28"></path><path d="M769.8 216L876.9 179L765.8 81Z" fill="#081a28" stroke="#081a28"></path><path d="M463.4 600L578.6 600L572.6 482Z" fill="#277297" stroke="#277297"></path><path d="M0 426L90.1 526L135.1 407Z" fill="#081a28" stroke="#081a28"></path><path d="M801.8 490L667.7 373L646.7 503Z" fill="#19435d" stroke="#19435d"></path><path d="M801.8 490L792.8 375L667.7 373Z" fill="#246688" stroke="#246688"></path><path d="M892.9 95L763.8 0L765.8 81Z" fill="#112e42" stroke="#112e42"></path><path d="M765.8 81L763.8 0L681.7 0Z" fill="#081a28" stroke="#081a28"></path><path d="M0 318L0 426L89.1 319Z" fill="#081a28" stroke="#081a28"></path><path d="M118.1 0L0 0L0 94Z" fill="#00101c" stroke="#00101c"></path><path d="M0 426L0 490L90.1 526Z" fill="#297ea6" stroke="#297ea6"></path><path d="M90.1 526L93.1 600L201.2 520Z" fill="#15384f" stroke="#15384f"></path><path d="M578.6 600L673.7 600L646.7 503Z" fill="#19435d" stroke="#19435d"></path><path d="M0 600L93.1 600L90.1 526Z" fill="#081a28" stroke="#081a28"></path><path d="M915.9 322L876.9 179L799.8 284Z" fill="#205a7a" stroke="#205a7a"></path><path d="M799.8 284L876.9 179L769.8 216Z" fill="#277297" stroke="#277297"></path><path d="M673.7 600L801.8 490L646.7 503Z" fill="#15384f" stroke="#15384f"></path><path d="M792.8 375L884.9 384L799.8 284Z" fill="#081a28" stroke="#081a28"></path><path d="M876.9 179L892.9 95L765.8 81Z" fill="#246688" stroke="#246688"></path><path d="M801.8 490L884.9 384L792.8 375Z" fill="#0c2435" stroke="#0c2435"></path><path d="M876.9 179L1000 111L892.9 95Z" fill="#081a28" stroke="#081a28"></path><path d="M884.9 384L915.9 322L799.8 284Z" fill="#0c2435" stroke="#0c2435"></path><path d="M0 490L0 600L90.1 526Z" fill="#246688" stroke="#246688"></path><path d="M801.8 490L875.9 525L884.9 384Z" fill="#1d4e6b" stroke="#1d4e6b"></path><path d="M1000 383L1000 307L915.9 322Z" fill="#246688" stroke="#246688"></path><path d="M673.7 600L784.8 600L801.8 490Z" fill="#277297" stroke="#277297"></path><path d="M892.9 95L912.9 0L763.8 0Z" fill="#112e42" stroke="#112e42"></path><path d="M1000 111L912.9 0L892.9 95Z" fill="#112e42" stroke="#112e42"></path><path d="M784.8 600L875.9 525L801.8 490Z" fill="#1d4e6b" stroke="#1d4e6b"></path><path d="M1000 307L1000 225L915.9 322Z" fill="#277297" stroke="#277297"></path><path d="M915.9 322L1000 225L876.9 179Z" fill="#15384f" stroke="#15384f"></path><path d="M1000 383L915.9 322L884.9 384Z" fill="#081a28" stroke="#081a28"></path><path d="M1000 225L1000 111L876.9 179Z" fill="#081a28" stroke="#081a28"></path><path d="M784.8 600L891.9 600L875.9 525Z" fill="#081a28" stroke="#081a28"></path><path d="M1000 513L1000 383L884.9 384Z" fill="#081a28" stroke="#081a28"></path><path d="M1000 513L884.9 384L875.9 525Z" fill="#246688" stroke="#246688"></path><path d="M1000 111L1000 0L912.9 0Z" fill="#00101c" stroke="#00101c"></path><path d="M891.9 600L1000 513L875.9 525Z" fill="#0c2435" stroke="#0c2435"></path><path d="M891.9 600L1000 600L1000 513Z" fill="#0c2435" stroke="#0c2435"></path></g></svg>